<?xml version="1.0" standalone="no"?>
<!DOCTYPE svg PUBLIC "-//W3C//DTD SVG 20010904//EN"
 "http://www.w3.org/TR/2001/REC-SVG-20010904/DTD/svg10.dtd">
<svg version="1.0" xmlns="http://www.w3.org/2000/svg"
 width="1200.000000pt" height="1200.000000pt" viewBox="0 0 1200.000000 1200.000000"
 preserveAspectRatio="xMidYMid meet">

<g transform="translate(0.000000,1200.000000) scale(0.100000,-0.100000)"
fill="#000000" stroke="none">
<path d="M2915 7684 c-281 -29 -530 -110 -742 -242 -436 -270 -708 -679 -795
-1192 -16 -100 -16 -393 1 -500 57 -364 226 -693 487 -954 272 -270 609 -428
1014 -473 124 -14 166 -15 290 -5 244 20 403 64 615 167 259 127 438 275 617
510 217 287 330 629 329 1005 0 452 -167 865 -476 1176 -271 272 -564 426
-935 489 -86 15 -332 26 -405 19z m330 -269 c315 -46 589 -183 816 -407 438
-434 542 -1115 254 -1666 -289 -554 -893 -855 -1505 -751 -610 103 -1083 584
-1176 1194 -18 115 -18 315 0 430 84 547 479 999 1010 1156 198 58 402 73 601
44z"/>
<path d="M6732 6934 c-18 -12 -22 -24 -20 -52 4 -48 43 -70 86 -50 38 18 44
78 10 102 -12 9 -29 16 -38 16 -9 0 -26 -7 -38 -16z"/>
<path d="M8040 6890 l0 -40 60 0 60 0 0 -240 0 -240 -65 0 -65 0 0 -40 0 -40
180 0 180 0 0 40 0 40 -65 0 -65 0 0 280 0 280 -110 0 -110 0 0 -40z"/>
<path d="M5120 6591 l0 -301 45 0 45 0 0 206 c0 113 3 203 8 200 4 -2 25 -50
47 -105 37 -94 42 -101 65 -99 22 3 31 18 70 111 l45 108 3 -210 2 -211 45 0
45 0 0 300 0 300 -44 0 -44 0 -57 -135 c-32 -74 -60 -135 -64 -135 -3 0 -31
60 -61 133 l-56 132 -47 3 -47 3 0 -300z"/>
<path d="M6236 6729 c-81 -20 -123 -77 -105 -144 13 -44 48 -70 141 -100 116
-38 140 -62 98 -100 -42 -38 -183 -11 -214 42 -6 12 -13 6 -33 -26 -13 -23
-21 -46 -17 -52 3 -6 30 -22 58 -35 39 -18 68 -24 124 -24 125 0 187 44 187
132 0 44 -4 53 -32 77 -18 15 -59 35 -90 45 -110 33 -134 47 -131 75 2 21 11
28 39 35 49 12 106 0 135 -29 l24 -24 27 36 c27 35 27 36 8 50 -52 40 -151 59
-219 42z"/>
<path d="M7221 6730 c-154 -38 -221 -240 -120 -363 73 -89 226 -104 322 -32
l27 20 -25 32 -26 32 -36 -25 c-64 -43 -146 -29 -184 33 -36 58 -24 162 24
202 47 39 141 31 174 -15 l18 -25 29 30 c35 36 30 52 -26 84 -48 28 -126 40
-177 27z"/>
<path d="M7662 6729 c-24 -4 -59 -18 -78 -29 l-34 -21 27 -34 c27 -33 27 -33
50 -15 31 24 76 34 119 25 35 -6 60 -33 66 -70 3 -18 -4 -21 -74 -26 -134 -11
-208 -67 -208 -155 0 -75 51 -114 148 -114 46 0 67 5 96 25 l36 24 0 -24 c0
-24 3 -25 55 -25 l55 0 0 149 c0 188 -16 238 -90 276 -35 17 -117 24 -168 14z
m158 -249 c0 -21 -28 -75 -46 -91 -40 -35 -126 -31 -140 6 -12 30 6 66 39 80
37 17 147 20 147 5z"/>
<path d="M5622 6563 c4 -187 12 -217 71 -253 56 -35 148 -22 188 26 13 16 14
15 19 -12 5 -27 9 -29 54 -32 42 -3 48 -1 42 13 -3 9 -6 109 -6 221 l0 204
-49 0 -50 0 -3 -154 c-3 -148 -4 -155 -28 -181 -20 -21 -32 -25 -65 -23 -63 5
-75 38 -75 216 l0 142 -51 0 -51 0 4 -167z"/>
<path d="M6620 6690 l0 -40 50 0 50 0 0 -140 0 -140 -55 0 -55 0 0 -40 0 -40
160 0 160 0 0 40 0 40 -50 0 -50 0 0 180 0 180 -105 0 -105 0 0 -40z"/>
</g>
</svg>
